<svg width="21" height="11" viewBox="0 0 21 11" fill="none" xmlns="http://www.w3.org/2000/svg">
<path d="M0.687011 5.17694C0.439892 5.42406 0.439892 5.82472 0.687011 6.07184L4.71406 10.0989C4.96117 10.346 5.36183 10.346 5.60895 10.0989C5.85607 9.85176 5.85607 9.4511 5.60895 9.20398L2.02936 5.62439L5.60895 2.04479C5.85607 1.79768 5.85607 1.39702 5.60895 1.1499C5.36183 0.902777 4.96117 0.902777 4.71406 1.1499L0.687011 5.17694ZM19.6851 6.25718C20.0346 6.25718 20.3179 5.97387 20.3179 5.62439C20.3179 5.27491 20.0346 4.9916 19.6851 4.9916V6.25718ZM1.13446 6.25718H19.6851V4.9916H1.13446V6.25718Z" fill="black"/>
</svg>
